<?xml version="1.0" encoding="utf-8"?>
<svg version="1.1" xmlns:cc="http://creativecommons.org/ns#" xmlns:dc="http://purl.org/dc/elements/1.1/" xmlns:rdf="http://www.w3.org/1999/02/22-rdf-syntax-ns#" xmlns="http://www.w3.org/2000/svg" xmlns:xlink="http://www.w3.org/1999/xlink" x="0px" y="0px" viewBox="0 0 1024 1024" xml:space="preserve">
<defs>
<filter id="noise" x="-50%" y="-50%" width="200%" height="200%">
  <feGaussianBlur in="SourceGraphic" stdDeviation="6" />
</filter>
</defs>

<linearGradient id="SVGID_1_" x1="0%" y1="0%" x2="100%" y2="100%">
	<stop  offset="0" style="stop-color:#fcfcfc; stop-opacity: 0"/>
	<stop  offset="1" style="stop-color:#fcfcfc; stop-opacity: 0.5"/>
</linearGradient>
<g transform="translate(0 128)">

 
 <g id="logo-group" transform="translate(-0.0538 30.091) scale(1)">
  <path id="path39732" style="font-variant-ligatures:none" d="m350.84 426.11q-0.38272 0-0.64768-0.23552-0.23552-0.26496-0.23552-0.64768v-21.23q0-0.38272 0.23552-0.61824 0.26496-0.26496 0.64768-0.26496t0.61824 0.26496q0.26496 0.23552 0.26496 0.61824v21.226q0 0.38272-0.26496 0.64768-0.23552 0.23552-0.61824 0.23552z" stroke-miterlimit="2" stroke-width="0" fill="#1b1660"/>
  <path id="path39734" style="font-variant-ligatures:none" d="m379.49 424.84q0.0883 0.17664 0.0883 0.38272 0 0.35328-0.26496 0.61824t-0.61824 0.26496q-0.5888 0-0.82432-0.55936l-2.1786-5.2109h-11.98l-2.1786 5.2109q-0.20608 0.55936-0.82432 0.55936-0.41216 0-0.64768-0.26496t-0.23552-0.61824q0-0.20608 0.0883-0.38272l8.9203-21.108q0.23552-0.61824 0.85376-0.61824 0.5888 0 0.85376 0.61824zm-4.4749-6.0941-5.3286-12.718-5.2992 12.718z" stroke-miterlimit="2" stroke-width="0" fill="#1b1660"/>
  <path id="path39736" style="font-variant-ligatures:none" d="m404.05 409.83q2.3258 0 4.2099 1.0893 1.8842 1.0598 2.944 2.944 1.0893 1.8842 1.0893 4.2099 0 2.2963-1.0893 4.1805-1.0598 1.8842-2.944 2.9734-1.8842 1.0598-4.2099 1.0598-2.0902 0-3.7978-0.8832-1.6781-0.91264-2.6496-2.473v9.1853q0 0.41216-0.23552 0.64768t-0.64768 0.23552q-0.38272 0-0.64768-0.23552-0.23552-0.23552-0.23552-0.64768v-14.22q0.0294-2.2669 1.1187-4.1216t2.944-2.8851q1.8842-1.0598 4.151-1.0598zm0 14.808q1.8253 0 3.2973-0.85376t2.3258-2.3552q0.85376-1.5014 0.85376-3.3562 0-1.8547-0.85376-3.3562-0.85376-1.5014-2.3258-2.3552-1.472-0.8832-3.2973-0.8832t-3.2973 0.8832q-1.472 0.85376-2.3258 2.3552-0.82432 1.5014-0.82432 3.3562 0 1.8547 0.82432 3.3562 0.85376 1.5014 2.3258 2.3552 1.472 0.85376 3.2973 0.85376z" stroke-miterlimit="2" stroke-width="0" fill="#1b1660"/>
  <path id="path39738" style="font-variant-ligatures:none" d="m428.67 409.83q2.2963 0 4.1805 1.0893 1.8842 1.0598 2.944 2.944 1.0893 1.8842 1.0893 4.2099v7.1539q0 0.38272-0.23552 0.64768-0.23552 0.23552-0.64768 0.23552-0.38272 0-0.64768-0.23552-0.23552-0.26496-0.23552-0.64768v-2.2963q-0.97152 1.5603-2.679 2.473-1.6781 0.8832-3.7683 0.8832-2.3258 0-4.2099-1.0598-1.8842-1.0893-2.9734-2.9734-1.0598-1.8842-1.0598-4.1805 0-2.3258 1.0598-4.2099 1.0893-1.8842 2.9734-2.944 1.8842-1.0893 4.2099-1.0893zm0 14.808q1.8253 0 3.2973-0.85376t2.2963-2.3552q0.85376-1.5014 0.85376-3.3562 0-1.8547-0.85376-3.3562-0.82432-1.5014-2.2963-2.3552-1.472-0.8832-3.2973-0.8832t-3.2973 0.8832q-1.472 0.85376-2.3258 2.3552-0.85376 1.5014-0.85376 3.3562 0 1.8547 0.85376 3.3562 0.85376 1.5014 2.3258 2.3552 1.472 0.85376 3.2973 0.85376z" stroke-miterlimit="2" stroke-width="0" fill="#1b1660"/>
  <path id="path39740" style="font-variant-ligatures:none" d="m452.75 409.83q2.2374 0 2.2374 0.97152 0 0.1472-0.0294 0.23552-0.0883 0.32384-0.2944 0.47104-0.17664 0.11776-0.50048 0.11776-0.26496 0-0.70656-0.0589-0.41216-0.0589-0.70656-0.0589-1.472 0-2.6202 0.61824t-1.7958 1.7075q-0.64768 1.0893-0.64768 2.4435v8.9498q0 0.38272-0.23552 0.64768-0.23552 0.23552-0.64768 0.23552-0.38272 0-0.64768-0.23552-0.23552-0.26496-0.23552-0.64768v-14.337q0-0.41216 0.23552-0.64768 0.26496-0.23552 0.64768-0.23552 0.41216 0 0.64768 0.23552t0.23552 0.64768v1.8253q0.85376-1.3542 2.1786-2.1197 1.3248-0.76544 2.8851-0.76544z" stroke-miterlimit="2" stroke-width="0" fill="#1b1660"/>
  <path id="path39742" style="font-variant-ligatures:none" d="m469.61 409.83q2.2963 0 4.1805 1.0893 1.8842 1.0598 2.944 2.944 1.0893 1.8842 1.0893 4.2099v7.1539q0 0.38272-0.23552 0.64768-0.23552 0.23552-0.64768 0.23552-0.38272 0-0.64768-0.23552-0.23552-0.26496-0.23552-0.64768v-2.2963q-0.97152 1.5603-2.679 2.473-1.6781 0.8832-3.7683 0.8832-2.3258 0-4.2099-1.0598-1.8842-1.0893-2.9734-2.9734-1.0598-1.8842-1.0598-4.1805 0-2.3258 1.0598-4.2099 1.0893-1.8842 2.9734-2.944 1.8842-1.0893 4.2099-1.0893zm0 14.808q1.8253 0 3.2973-0.85376t2.2963-2.3552q0.85376-1.5014 0.85376-3.3562 0-1.8547-0.85376-3.3562-0.82432-1.5014-2.2963-2.3552-1.472-0.8832-3.2973-0.8832t-3.2973 0.8832q-1.472 0.85376-2.3258 2.3552-0.85376 1.5014-0.85376 3.3562 0 1.8547 0.85376 3.3562 0.85376 1.5014 2.3258 2.3552 1.472 0.85376 3.2973 0.85376z" stroke-miterlimit="2" stroke-width="0" fill="#1b1660"/>
  <path id="path39744" style="font-variant-ligatures:none" d="m496.66 426.11q-0.38272 0-0.64768-0.23552-0.23552-0.26496-0.23552-0.64768v-21.23q0-0.38272 0.23552-0.61824 0.26496-0.26496 0.64768-0.26496h14.161q0.35328 0 0.61824 0.26496 0.26496 0.23552 0.26496 0.61824 0 0.35328-0.26496 0.61824t-0.61824 0.26496h-13.277v8.832h9.7446q0.38272 0 0.61824 0.26496 0.26496 0.23552 0.26496 0.61824t-0.26496 0.64768q-0.23552 0.26496-0.61824 0.26496h-9.7446v8.832h13.277q0.35328 0 0.61824 0.26496t0.26496 0.61824q0 0.38272-0.26496 0.64768-0.26496 0.23552-0.61824 0.23552z" stroke-miterlimit="2" stroke-width="0" fill="#1b1660"/>
  <path id="path39746" style="font-variant-ligatures:none" d="m537.25 409.8q1.7664 0 3.1501 0.8832t2.1491 2.473q0.76544 1.5603 0.76544 3.5622v8.5082q0 0.38272-0.23552 0.64768-0.23552 0.23552-0.64768 0.23552-0.38272 0-0.64768-0.23552-0.23552-0.26496-0.23552-0.64768v-8.5082q0-2.2669-1.207-3.7094-1.207-1.4426-3.0912-1.4426-2.0608 0-3.3267 1.3542t-1.207 3.5917v8.7143q0 0.38272-0.23552 0.64768-0.23552 0.23552-0.64768 0.23552-0.38272 0-0.64768-0.23552-0.23552-0.26496-0.23552-0.64768v-8.5082q0-2.2669-1.207-3.7094-1.207-1.4426-3.0912-1.4426-2.0314 0-3.3267 1.2954-1.2954 1.2954-1.2954 3.3562v9.0086q0 0.38272-0.23552 0.64768-0.23552 0.23552-0.64768 0.23552-0.38272 0-0.64768-0.23552-0.23552-0.26496-0.23552-0.64768v-14.337q0-0.41216 0.23552-0.64768 0.26496-0.23552 0.64768-0.23552 0.41216 0 0.64768 0.23552t0.23552 0.64768v1.1482q0.82432-1.0598 2.0314-1.6486 1.207-0.5888 2.5907-0.5888 1.7075 0 3.0618 0.85376 1.3542 0.82432 2.1491 2.2963 0.79488-1.472 2.208-2.2963 1.4131-0.85376 3.1795-0.85376z" stroke-miterlimit="2" stroke-width="0" fill="#1b1660"/>
  <path id="path39748" style="font-variant-ligatures:none" d="m561.14 409.83q2.3258 0 4.2099 1.0893 1.8842 1.0598 2.944 2.944 1.0893 1.8842 1.0893 4.2099 0 2.2963-1.0893 4.1805-1.0598 1.8842-2.944 2.9734-1.8842 1.0598-4.2099 1.0598-2.0902 0-3.7978-0.8832-1.6781-0.91264-2.6496-2.473v9.1853q0 0.41216-0.23552 0.64768t-0.64768 0.23552q-0.38272 0-0.64768-0.23552-0.23552-0.23552-0.23552-0.64768v-14.22q0.0294-2.2669 1.1187-4.1216t2.944-2.8851q1.8842-1.0598 4.151-1.0598zm0 14.808q1.8253 0 3.2973-0.85376t2.3258-2.3552q0.85376-1.5014 0.85376-3.3562 0-1.8547-0.85376-3.3562-0.85376-1.5014-2.3258-2.3552-1.472-0.8832-3.2973-0.8832t-3.2973 0.8832q-1.472 0.85376-2.3258 2.3552-0.82432 1.5014-0.82432 3.3562 0 1.8547 0.82432 3.3562 0.85376 1.5014 2.3258 2.3552 1.472 0.85376 3.2973 0.85376z" stroke-miterlimit="2" stroke-width="0" fill="#1b1660"/>
  <path id="path39750" style="font-variant-ligatures:none" d="m585.23 409.83q2.2374 0 2.2374 0.97152 0 0.1472-0.0294 0.23552-0.0883 0.32384-0.2944 0.47104-0.17664 0.11776-0.50048 0.11776-0.26496 0-0.70656-0.0589-0.41216-0.0589-0.70656-0.0589-1.472 0-2.6202 0.61824t-1.7958 1.7075q-0.64768 1.0893-0.64768 2.4435v8.9498q0 0.38272-0.23552 0.64768-0.23552 0.23552-0.64768 0.23552-0.38272 0-0.64768-0.23552-0.23552-0.26496-0.23552-0.64768v-14.337q0-0.41216 0.23552-0.64768 0.26496-0.23552 0.64768-0.23552 0.41216 0 0.64768 0.23552t0.23552 0.64768v1.8253q0.85376-1.3542 2.1786-2.1197 1.3248-0.76544 2.8851-0.76544z" stroke-miterlimit="2" stroke-width="0" fill="#1b1660"/>
  <path id="path39752" style="font-variant-ligatures:none" d="m601.41 409.86q2.1491 0 3.8272 1.0304 1.7075 1.001 2.6496 2.7968 0.94208 1.7958 0.94208 4.0922 0 0.38272-0.23552 0.61824-0.23552 0.20608-0.61824 0.20608h-12.335q0.0883 1.737 0.91264 3.1206 0.82432 1.3542 2.208 2.1197 1.3837 0.76544 3.0912 0.76544 1.1482 0 2.2963-0.38272 1.1776-0.41216 1.8547-1.0598 0.2944-0.23552 0.61824-0.23552t0.52992 0.17664q0.32384 0.26496 0.32384 0.61824 0 0.2944-0.26496 0.55936-0.94208 0.85376-2.473 1.4131-1.5014 0.55936-2.8851 0.55936-2.3258 0-4.151-1.0304-1.7958-1.0598-2.8262-2.9146-1.0304-1.8842-1.0304-4.2394 0-2.3846 0.94208-4.2394 0.97152-1.8842 2.679-2.9146 1.737-1.0598 3.945-1.0598zm0 1.6486q-2.2963 0-3.8861 1.5309-1.5603 1.5309-1.8547 4.0333h11.452q-0.20608-2.5024-1.7664-4.0333t-3.945-1.5309z" stroke-miterlimit="2" stroke-width="0" fill="#1b1660"/>
  <path id="path39754" style="font-variant-ligatures:none" d="m622.75 426.29q-1.7075 0-3.3267-0.5888-1.6192-0.61824-2.679-1.8547-0.20608-0.23552-0.20608-0.52992 0-0.41216 0.38272-0.67712 0.17664-0.1472 0.50048-0.1472 0.41216 0 0.67712 0.32384 1.472 1.7958 4.7398 1.7958 2.3258 0 3.415-0.82432 1.1187-0.82432 1.1187-2.1197 0-2.3258-4.5043-2.9734-2.8557-0.41216-4.3277-1.5603-1.4426-1.1482-1.4426-2.7674 0-2.1491 1.5603-3.3267 1.5898-1.207 4.1216-1.207 3.7094 0 5.623 2.6496 0.17664 0.20608 0.17664 0.50048 0 0.41216-0.47104 0.67712-0.2944 0.11776-0.4416 0.11776-0.4416 0-0.736-0.38272-1.5014-1.9136-4.2099-1.9136-1.7958 0-2.8557 0.79488-1.0598 0.76544-1.0598 1.9136 0 1.1776 1.001 1.8842 1.0304 0.70656 3.415 1.0598 3.1206 0.4416 4.4749 1.6781 1.3837 1.207 1.3837 2.944 0 1.3542-0.8832 2.3846-0.85376 1.0304-2.2963 1.5898-1.4426 0.55936-3.1501 0.55936z" stroke-miterlimit="2" stroke-width="0" fill="#1b1660"/>
  <path id="path39756" style="font-variant-ligatures:none" d="m644.99 409.83q2.2963 0 4.1805 1.0893 1.8842 1.0598 2.944 2.944 1.0893 1.8842 1.0893 4.2099v7.1539q0 0.38272-0.23552 0.64768-0.23552 0.23552-0.64768 0.23552-0.38272 0-0.64768-0.23552-0.23552-0.26496-0.23552-0.64768v-2.2963q-0.97152 1.5603-2.679 2.473-1.6781 0.8832-3.7683 0.8832-2.3258 0-4.2099-1.0598-1.8842-1.0893-2.9734-2.9734-1.0598-1.8842-1.0598-4.1805 0-2.3258 1.0598-4.2099 1.0893-1.8842 2.9734-2.944 1.8842-1.0893 4.2099-1.0893zm0 14.808q1.8253 0 3.2973-0.85376t2.2963-2.3552q0.85376-1.5014 0.85376-3.3562 0-1.8547-0.85376-3.3562-0.82432-1.5014-2.2963-2.3552-1.472-0.8832-3.2973-0.8832t-3.2973 0.8832q-1.472 0.85376-2.3258 2.3552-0.85376 1.5014-0.85376 3.3562 0 1.8547 0.85376 3.3562 0.85376 1.5014 2.3258 2.3552 1.472 0.85376 3.2973 0.85376z" stroke-miterlimit="2" stroke-width="0" fill="#1b1660"/>
  <path id="path39758" style="font-variant-ligatures:none" d="m667.71 426.29q-1.7075 0-3.3267-0.5888-1.6192-0.61824-2.679-1.8547-0.20608-0.23552-0.20608-0.52992 0-0.41216 0.38272-0.67712 0.17664-0.1472 0.50048-0.1472 0.41216 0 0.67712 0.32384 1.472 1.7958 4.7398 1.7958 2.3258 0 3.415-0.82432 1.1187-0.82432 1.1187-2.1197 0-2.3258-4.5043-2.9734-2.8557-0.41216-4.3277-1.5603-1.4426-1.1482-1.4426-2.7674 0-2.1491 1.5603-3.3267 1.5898-1.207 4.1216-1.207 3.7094 0 5.623 2.6496 0.17664 0.20608 0.17664 0.50048 0 0.41216-0.47104 0.67712-0.2944 0.11776-0.4416 0.11776-0.4416 0-0.736-0.38272-1.5014-1.9136-4.2099-1.9136-1.7958 0-2.8557 0.79488-1.0598 0.76544-1.0598 1.9136 0 1.1776 1.001 1.8842 1.0304 0.70656 3.415 1.0598 3.1206 0.4416 4.4749 1.6781 1.3837 1.207 1.3837 2.944 0 1.3542-0.8832 2.3846-0.85376 1.0304-2.2963 1.5898-1.4426 0.55936-3.1501 0.55936z" stroke-miterlimit="2" stroke-width="0" fill="#1b1660"/>
  <path id="path26" style="font-variant-ligatures:normal" d="m345.92 311.02v21.698c0 8.2577 6.7642 14.934 14.934 14.934 8.2576 0 15.022-6.6764 15.022-14.934v-21.698c0-4.041 3.2502-7.2913 7.2914-7.2913 3.9531 0 7.2032 3.2504 7.2032 7.2913v21.698c0 16.252-13.44 29.429-29.516 29.429-13.617 0-25.213-9.4875-28.375-22.138-0.61477-4.041-0.96623-10.454-0.96623-14.583v-14.407c0-4.041 3.2508-7.2913 7.2914-7.2913 3.9531 0 7.1157 3.2504 7.1157 7.2913z" class="c1" stroke-miterlimit="2" stroke-width="0" fill="#1b1660"/>
  <path id="path29" style="font-variant-ligatures:normal" d="m429.95 347.69c-0.0393 0-0.0769-0.005-0.11554-0.005h0.11554c-8.2124 0-14.921-6.7088-14.921-15.153v-14.343h7.6339c4.0287 0 7.2533-3.2078 7.2842-7.2294-0.031-4.021-3.2555-7.2288-7.2842-7.2288h-7.6339v-8.4441c0-4.0287-3.2084-7.2527-7.2294-7.2842-4.021 0.0316-7.2294 3.2555-7.2294 7.2842v37.245c0 16.396 13.139 29.562 29.293 29.609 0.0292-0.0006 0.0578-0.005 0.087-0.006 3.9543-0.17216 7.1044-3.3234 7.1657-7.2783-0.0614-3.9543-3.2114-7.1044-7.1657-7.1657z" class="c1" stroke-miterlimit="2" stroke-width="0" fill="#1b1660"/>
  <path id="path31" style="font-variant-ligatures:normal" d="m415.03 303.73h-7.2295c-3.9925 0-7.2291 3.2366-7.2291 7.2292s3.2366 7.2292 7.2291 7.2292h7.2295z" class="c2" stroke-miterlimit="2" stroke-width="0" fill="#3730aa"/>
  <path id="path33" style="font-variant-ligatures:normal" d="m422.66 318.19c4.0288 0 7.253-3.2079 7.2843-7.2295-0.0312-4.021-3.2555-7.2288-7.2843-7.2288h-7.6342v14.458z" class="c3" stroke-miterlimit="2" stroke-width="0" fill="#534af5"/>
  <path id="path36" style="font-variant-ligatures:normal" d="m442.82 332.54c0-16.164 13.441-29.341 29.517-29.341 16.164 0 29.341 13.177 29.341 29.341 0 16.427-13.177 29.605-29.341 29.605-16.076 0-29.517-13.177-29.517-29.605zm29.517 15.11c8.1698 0 14.846-6.6764 14.846-15.11 0-8.2577-6.6763-14.934-14.846-14.934-8.2579 0-15.11 6.6763-15.11 14.934 0 8.4334 6.8521 15.11 15.11 15.11z" class="c1" stroke-miterlimit="2" stroke-width="0" fill="#1b1660"/>
  <path id="path39" style="font-variant-ligatures:normal" d="m584.06 303.2c-8.842 0-16.779 3.9418-22.164 10.154-5.4346-6.212-13.412-10.154-22.191-10.154-16.171 0-29.339 13.168-29.339 29.339v21.715c0 4.0234 3.2037 7.2432 7.2193 7.2741 4.015-0.031 7.2187-3.2508 7.2187-7.2741v-21.72c0-8.201 6.6999-14.901 14.901-14.901 8.2004 0 15.015 6.6999 15.015 14.901v21.715c0 4.0234 3.2037 7.2432 7.2193 7.2741 4.0156-0.031 7.2193-3.2508 7.2193-7.2741v-21.72c0-8.201 6.6993-14.901 14.9-14.901 8.201 0 15.016 6.6999 15.016 14.901v21.715c0 4.0234 3.2037 7.2432 7.2187 7.2741 4.0156-0.031 7.2193-3.2508 7.2193-7.2741v-21.72c0-16.171-13.399-29.339-29.454-29.339z" class="c1" stroke-miterlimit="2" stroke-width="0" fill="#1b1660"/>
  <path id="path41" style="font-variant-ligatures:normal" d="m584.06 303.2c-8.842 0-16.779 3.9418-22.164 10.154 4.5047 5.1486 7.2634 11.856 7.2634 19.185 0-8.201 6.6993-14.901 14.9-14.901 8.201 0 15.016 6.6999 15.016 14.901v21.715c0 4.0234 3.2037 7.2432 7.2187 7.2741 4.0156-0.031 7.2193-3.2508 7.2193-7.2741v-21.72c0-16.171-13.399-29.339-29.454-29.339z" class="c3" stroke-miterlimit="2" stroke-width="0" fill="#534af5"/>
  <path id="path43" style="font-variant-ligatures:normal" d="m554.72 332.54v21.715c0 4.0234 3.2037 7.2432 7.2193 7.2741 4.0156-0.031 7.2193-3.2508 7.2193-7.2741v-21.72c0-7.3295-2.7587-14.037-7.2634-19.185-4.4636 5.1486-7.1752 11.856-7.1752 19.185z" class="c2" stroke-miterlimit="2" stroke-width="0" fill="#3730aa"/>
  <path id="path46" style="font-variant-ligatures:normal" d="m692.62 351.37-14.286-31.183c-0.0345-0.0745-0.0744-0.14595-0.11017-0.21982-0.075-0.15607-0.15548-0.30977-0.23292-0.46405-0.14773-0.2919-0.29547-0.5832-0.45215-0.87032-0.0471-0.0858-0.0977-0.17038-0.14535-0.25556-2.748-4.911-6.8607-8.9528-11.798-11.628-0.002-0.001-0.005-0.003-0.007-0.004-0.3866-0.2091-0.77917-0.40865-1.1753-0.60107-0.0465-0.0226-0.093-0.0459-0.1394-0.0685-0.3604-0.17276-0.72557-0.33598-1.0931-0.49443-0.0876-0.0375-0.17513-0.0762-0.2633-0.11318-0.33538-0.14-0.67493-0.27283-1.0163-0.40091-0.1257-0.047-0.2508-0.0947-0.37708-0.13999-0.14058-0.0506-0.27819-0.10723-0.41997-0.15608-0.0686-0.0232-0.13642-0.0345-0.20492-0.056-2.9237-0.97933-6.038-1.5184-9.2632-1.5184-16.181 0-29.357 13.176-29.357 29.357 0 16.412 13.176 29.589 29.357 29.589 9.947 0 18.871-5.0546 24.229-12.798l3.6677 8.017c1.1718 2.5603 3.7285 4.2027 6.5444 4.2027 5.2434 0 8.727-5.4274 6.5432-10.194zm-40.984-3.6755c-8.2058 0-14.91-6.7034-14.91-15.141 0-8.2064 6.704-14.91 14.91-14.91 1.9551 0 3.8268 0.39018 5.5514 1.0812 0.12748 0.0506 0.25555 0.0995 0.38185 0.15369 0.38363 0.1662 0.76012 0.34491 1.1271 0.5409 0.0304 0.0161 0.0614 0.0316 0.0917 0.0482 4.6638 2.5365 7.8734 7.457 7.8734 13.086 0 8.4375-6.819 15.141-15.025 15.141z" class="c1" stroke-miterlimit="2" stroke-width="0" fill="#1b1660"/>
  <path id="path48" style="font-variant-ligatures:normal" d="m692.62 351.37-14.286-31.183c-0.0345-0.0745-0.0744-0.14595-0.11017-0.21982 1.8437 3.8173 2.8844 8.0849 2.8844 12.587 0 6.2501-1.9486 12.028-5.244 16.791l3.6678 8.017c1.1718 2.5603 3.7285 4.2027 6.5444 4.2027 5.2434 0 8.727-5.4274 6.5432-10.194z" class="c3" stroke-miterlimit="2" stroke-width="0" fill="#534af5"/>
  <path id="path50" style="font-variant-ligatures:normal" d="m678.22 319.97c-0.075-0.15607-0.15547-0.30917-0.23292-0.46405-0.14773-0.2919-0.29547-0.58379-0.45214-0.87032-0.0471-0.0858-0.0977-0.16978-0.14535-0.25556-2.7486-4.8996-6.8595-8.9486-11.798-11.628-0.002-0.001-0.005-0.003-0.007-0.004-0.38661-0.20969-0.77918-0.40865-1.1753-0.60107-0.0465-0.0226-0.093-0.0459-0.13939-0.0685-0.3604-0.17276-0.72557-0.33598-1.0931-0.49443-0.0876-0.0375-0.17513-0.0762-0.2633-0.11318-0.33538-0.14-0.67493-0.27283-1.0163-0.40091-0.12569-0.047-0.25079-0.0947-0.37707-0.13999-0.20671-0.0745-0.4164-0.14238-0.6249-0.21207-4.5828-1.419-9.2632 2.0832-9.2632 6.9227 0 3.1036 1.9974 5.8224 4.9306 6.8375 0.21148 0.0733 0.41282 0.168 0.62072 0.2502 0.12748 0.0512 0.25616 0.0995 0.38185 0.1537 0.38423 0.16442 0.75833 0.3461 1.1271 0.5409 0.0304 0.0161 0.0614 0.0316 0.0918 0.0482 2.8058 1.5059 5.1129 3.8512 6.4866 6.729l10.59 23.148c3.2954-4.7632 5.244-10.541 5.244-16.791 0-4.5017-1.0407-8.7693-2.8844-12.587z" class="c2" stroke-miterlimit="2" stroke-width="0" fill="#3730aa"/>
  <path id="path53" style="font-variant-ligatures:normal" d="m720.75 347.69c-0.0393 0-0.0769-0.005-0.11554-0.005h0.11554c-8.2124 0-14.921-6.7088-14.921-15.153v-14.343h7.6339c4.0287 0 7.2533-3.2078 7.2842-7.2294-0.031-4.021-3.2555-7.2288-7.2842-7.2288h-7.6339v-8.4441c0-4.0287-3.2084-7.2527-7.2294-7.2842-4.021 0.0316-7.2294 3.2555-7.2294 7.2842v37.245c0 16.396 13.139 29.562 29.293 29.609 0.0292-0.0006 0.0578-0.005 0.087-0.006 3.9543-0.17216 7.1044-3.3234 7.1657-7.2783-0.0614-3.9543-3.2114-7.1044-7.1657-7.1657z" class="c1" stroke-miterlimit="2" stroke-width="0" fill="#1b1660"/>
  <path id="path55" style="font-variant-ligatures:normal" d="m705.83 303.73h-7.2295c-3.9925 0-7.2291 3.2366-7.2291 7.2292s3.2366 7.2292 7.2291 7.2292h7.2295z" class="c2" stroke-miterlimit="2" stroke-width="0" fill="#3730aa"/>
  <path id="path57" style="font-variant-ligatures:normal" d="m713.46 318.19c4.0288 0 7.253-3.2079 7.2843-7.2295-0.0312-4.021-3.2555-7.2288-7.2843-7.2288h-7.6342v14.458z" class="c3" stroke-miterlimit="2" stroke-width="0" fill="#534af5"/>
  <path id="path60" style="font-variant-ligatures:normal" d="m736.26 354.24v-43.221c0-4.041 3.2504-7.2913 7.2914-7.2913 3.9531 0 7.1157 3.2504 7.1157 7.2913v43.221c0 4.041-3.1626 7.2913-7.1157 7.2913-4.041 0-7.2914-3.2503-7.2914-7.2913z" class="c1" stroke-miterlimit="2" stroke-width="0" fill="#1b1660"/>
  <path id="path63" style="font-variant-ligatures:normal" d="m760.73 332.54c0-16.164 13.441-29.341 29.517-29.341 16.164 0 29.341 13.177 29.341 29.341 0 16.427-13.177 29.605-29.341 29.605-16.076 0-29.517-13.177-29.517-29.605zm29.517 15.11c8.1698 0 14.846-6.6764 14.846-15.11 0-8.2577-6.6763-14.934-14.846-14.934-8.2579 0-15.11 6.6763-15.11 14.934 0 8.4334 6.8521 15.11 15.11 15.11z" class="c1" stroke-miterlimit="2" stroke-width="0" fill="#1b1660"/>
  <path id="icon" stroke-width=".73218" fill="#1b1660" d="m263.6 274.82c-1.2763-0.007-2.6225 0.002-2.9921 0.0204-0.36923 0.0183-0.9738 0.0546-1.3434 0.0798-0.36923 0.0256-1.0654 0.0831-1.547 0.12742-0.48118 0.0448-1.3056 0.13597-1.8319 0.20274-0.52596 0.0668-1.4053 0.19337-1.954 0.28089-0.54835 0.0875-1.3361 0.22513-1.7505 0.30532-0.41401 0.0806-1.0527 0.21088-1.4187 0.28945-0.36598 0.0786-1.1354 0.26013-1.7098 0.40261-0.57441 0.14289-1.5294 0.39895-2.123 0.56952-0.59313 0.17017-1.6467 0.4995-2.3408 0.73154-0.6941 0.23246-1.7244 0.59884-2.2899 0.81463-0.56505 0.21535-1.3255 0.51701-1.6894 0.66967-0.36394 0.15266-0.98193 0.41889-1.3739 0.59151-0.39162 0.1726-1.3719 0.64117-2.178 1.0413-0.80605 0.40017-1.8502 0.94158-2.3204 1.203-0.47019 0.26176-1.264 0.72137-1.7635 1.0214-0.49991 0.30003-1.251 0.76696-1.6691 1.0368-0.41849 0.2703-1.0808 0.71322-1.4729 0.98398-0.39162 0.27112-0.9872 0.69328-1.323 0.93873-0.33585 0.24547-0.95872 0.71689-1.3841 1.0475-0.42541 0.33055-1.1122 0.88337-1.5266 1.2286-0.41401 0.34521-1.0368 0.88015-1.3841 1.1883-0.34684 0.30858-1.0556 0.96443-1.5743 1.4578-0.51904 0.4934-1.3364 1.3113-1.8168 1.8173-0.48037 0.50602-1.0691 1.1378-1.3084 1.404-0.23896 0.26624-0.677 0.76982-0.9738 1.1195-0.29677 0.34928-0.73196 0.87363-0.96766 1.1647-0.2353 0.29107-0.63832 0.80401-0.89516 1.1399-0.25728 0.33585-0.6603 0.87605-0.89641 1.2009-0.23612 0.32445-0.63141 0.88338-0.87891 1.2416-0.24711 0.35824-0.67415 0.99942-0.94854 1.4248-0.27438 0.42541-0.7409 1.1765-1.0365 1.6691-0.29555 0.49259-0.73032 1.2437-0.96641 1.6691-0.23652 0.42541-0.69857 1.2864-1.0275 1.9133-0.32893 0.62693-0.78687 1.5246-1.0177 1.9948-0.23082 0.47019-0.55242 1.148-0.71445 1.5062-0.16202 0.35825-0.44495 1.0177-0.62937 1.4655-0.18441 0.4478-0.4592 1.144-0.61105 1.547-0.15144 0.40303-0.43721 1.2184-0.63465 1.8116-0.19744 0.59313-0.48037 1.5002-0.62855 2.0151-0.14859 0.51497-0.38837 1.4126-0.53288 1.9948-0.14452 0.58215-0.38023 1.6446-0.52393 2.3611-0.1433 0.71649-0.32568 1.7147-0.40506 2.2187-0.079 0.50358-0.19825 1.3463-0.26461 1.8726-0.0668 0.52596-0.1494 1.2588-0.1836 1.6284-0.0346 0.36924-0.09 1.0381-0.12294 1.4859-0.033 0.44781-0.0814 1.3455-0.10747 1.9948-0.0293 0.73357-0.0383 1.8739-0.0228 3.0125 0.0134 1.0076 0.0436 2.1433 0.0668 2.524 0.0232 0.38063 0.0704 1.0491 0.10462 1.4859 0.0342 0.4364 0.10829 1.2241 0.16406 1.7505 0.0558 0.52596 0.15632 1.3503 0.2239 1.8319 0.0676 0.48119 0.18685 1.2599 0.26502 1.7302 0.0786 0.47019 0.21617 1.2302 0.30654 1.6894 0.09 0.45879 0.23653 1.1643 0.32568 1.5673 0.0891 0.40302 0.27275 1.1724 0.40831 1.7098 0.13597 0.53736 0.33748 1.2974 0.44822 1.6894 0.11113 0.39163 0.3102 1.0617 0.44251 1.4888 0.1323 0.42704 0.35294 1.1049 0.49013 1.5062 0.13719 0.4014 0.37372 1.0686 0.52556 1.483 0.15185 0.41401 0.42704 1.1284 0.61187 1.5877 0.18481 0.4592 0.49624 1.2009 0.69205 1.6487 0.19622 0.4478 0.50602 1.1346 0.68921 1.5266 0.18279 0.39162 0.55203 1.1403 0.82071 1.663 0.26868 0.52271 0.68269 1.3011 0.92042 1.7302 0.23734 0.42867 0.65094 1.1459 0.91962 1.5937 0.26827 0.4478 0.72422 1.179 1.0128 1.6243 0.28863 0.44577 0.73723 1.1142 0.99657 1.4859 0.25973 0.37168 0.76045 1.0605 1.1122 1.5307 0.35213 0.47019 0.88499 1.157 1.1842 1.5258 0.29962 0.36923 0.7991 0.96443 1.1101 1.3231 0.31102 0.35864 0.86383 0.97255 1.2282 1.3646 0.36435 0.39162 1.0169 1.0609 1.4504 1.4863 0.43355 0.42582 1.0043 0.97095 1.2689 1.2111 0.2642 0.24059 0.4934 0.43681 0.50887 0.436 0.0155-0.00074 1.7228-2.9392 3.7937-6.5298 2.0713-3.591 3.7701-6.5245 3.7758-6.5196 0.005 0.005-0.99497 3.5164-2.2228 7.8021-1.2282 4.2859-2.2455 7.8329-2.2614 7.8819-0.0252 0.079 0.0578 0.15918 0.68921 0.66356 0.39488 0.3155 1.0418 0.81661 1.437 1.1142 0.3957 0.29759 1.0674 0.7857 1.4928 1.0849 0.42541 0.29922 1.1126 0.76616 1.5266 1.0381 0.41442 0.27153 1.0829 0.69613 1.4859 0.9432 0.40302 0.24711 0.95381 0.57848 1.2241 0.73686 0.26991 0.15837 0.86186 0.49096 1.3145 0.73929 0.4531 0.24833 1.3129 0.69613 1.9109 0.99533 0.59762 0.2988 1.4077 0.69002 1.7993 0.86873 0.39203 0.17912 1.0149 0.45432 1.3841 0.61227 0.36964 0.15796 0.95542 0.40018 1.3027 0.53859 0.34726 0.13881 0.92409 0.36149 1.2824 0.49543 0.35824 0.13393 1.0543 0.38022 1.547 0.54754 0.49258 0.16691 1.2803 0.42093 1.7505 0.56382 0.47019 0.14289 1.0841 0.32405 1.3638 0.40221 0.28008 0.0786 0.91186 0.24385 1.4045 0.3676 0.49259 0.12376 1.1798 0.28823 1.5266 0.36598 0.34725 0.0774 1.0068 0.21454 1.4655 0.30491 0.4592 0.0904 1.1643 0.21943 1.5673 0.287 0.40302 0.0676 1.1174 0.1775 1.5877 0.24426 0.47019 0.0671 1.1847 0.15918 1.5877 0.20436 0.40303 0.0452 1.1724 0.11888 1.7098 0.16325 0.53737 0.0448 1.3068 0.10014 1.7098 0.12375 0.40302 0.0236 1.4655 0.0541 2.3611 0.068 0.99371 0.0151 2.0965 0.006 2.8293-0.0228 0.66072-0.0261 1.4757-0.0655 1.8116-0.0879 0.33585-0.0224 1.023-0.0778 1.5266-0.12334 0.50398-0.0456 1.2823-0.12742 1.7301-0.18238 0.4478-0.055 1.0707-0.13719 1.3841-0.18319 0.31346-0.0456 0.8997-0.13801 1.3027-0.20477 0.40302-0.0671 1.0625-0.18645 1.4655-0.26502 0.40302-0.0786 1.0979-0.22512 1.5445-0.32527 0.44659-0.10014 1.1427-0.26502 1.547-0.36638 0.40425-0.10177 1.0926-0.28374 1.529-0.40465 0.43681-0.12091 1.1753-0.33911 1.6418-0.48485 0.46612-0.14574 1.1623-0.37371 1.547-0.50642 0.38429-0.13271 0.90051-0.31428 1.1467-0.40384 0.24629-0.0891 0.74089-0.276 1.0992-0.41483 0.35824-0.13922 0.87115-0.34399 1.1399-0.45553 0.26868-0.11114 0.90988-0.38796 1.4248-0.61471 0.51497-0.22676 1.4953-0.68962 2.178-1.0284 0.6831-0.33911 1.4887-0.7499 1.7912-0.91354 0.30247-0.16366 0.87034-0.48078 1.262-0.70468 0.39204-0.2235 0.94159-0.5447 1.2213-0.71364 0.28009-0.16894 0.83864-0.5166 1.2416-0.77223 0.40302-0.25566 1.1085-0.72259 1.5673-1.0376 0.4592-0.31509 1.1737-0.82195 1.5877-1.1265 0.41442-0.3045 1.0556-0.79098 1.4248-1.0812 0.36964-0.28984 0.94649-0.75517 1.2823-1.034 0.33585-0.27846 0.74822-0.62652 0.91596-0.77392 0.16813-0.14695 0.5797-0.51497 0.91515-0.81704 0.33544-0.30247 0.98596-0.90908 1.4452-1.3483 0.45961-0.43926 1.2315-1.2181 1.7155-1.7302 0.48404-0.51253 1.1081-1.1879 1.3865-1.5013 0.27845-0.31346 0.86302-0.99372 1.2995-1.512 0.436-0.51823 1.0487-1.2755 1.3614-1.6829 0.31265-0.4075 0.859-1.1468 1.214-1.643 0.35498-0.49625 0.89685-1.2779 1.2041-1.7367 0.30736-0.4592 0.73687-1.1236 0.95382-1.477l0.39488-0.64239-4.3987-7.6176c-2.4194-4.1894-4.3942-7.622-4.388-7.6279 0.006-0.005 2.4658 2.5342 5.466 5.6435 3.0003 3.1094 5.466 5.6541 5.4791 5.6545 0.0134 0.0004 0.20192-0.36598 0.4193-0.81462 0.21739-0.44862 0.58459-1.2421 0.8166-1.7635 0.23164-0.52189 0.63262-1.4786 0.8907-2.1262 0.25851-0.64728 0.61715-1.5937 0.79706-2.1026 0.18033-0.50846 0.46449-1.3605 0.63139-1.893 0.16732-0.53207 0.39692-1.2929 0.5105-1.6902 0.11358-0.39733 0.30614-1.1146 0.42745-1.5938 0.12172-0.47914 0.32201-1.3356 0.44536-1.9032 0.12335-0.56748 0.29759-1.435 0.38715-1.9276 0.0896-0.49258 0.2186-1.262 0.28659-1.7098 0.0684-0.4478 0.15999-1.0984 0.20354-1.4452 0.044-0.34725 0.11684-0.99738 0.16203-1.4452 0.0448-0.44781 0.1095-1.1806 0.14288-1.6284 0.0338-0.4478 0.0822-1.2998 0.10829-1.893 0.0293-0.67251 0.0387-1.8222 0.0245-3.0532-0.0126-1.0861-0.0423-2.2675-0.0663-2.6258-0.024-0.35824-0.0716-0.99943-0.10584-1.4248-0.0342-0.42542-0.10828-1.1948-0.16446-1.7098-0.0566-0.51498-0.15796-1.321-0.22513-1.7912-0.0676-0.4702-0.17749-1.1757-0.24466-1.5673-0.0668-0.39203-0.18604-1.0422-0.26502-1.4452-0.079-0.40303-0.21617-1.0626-0.30573-1.4655-0.0891-0.40302-0.26298-1.1346-0.38592-1.626-0.12335-0.49096-0.36109-1.3703-0.52881-1.954-0.16732-0.58337-0.48486-1.6015-0.70509-2.2618-0.22064-0.66072-0.5569-1.6141-0.74785-2.1193-0.19052-0.50521-0.43274-1.1281-0.53777-1.3841-0.10544-0.25606-0.31753-0.76169-0.47182-1.1236-0.15429-0.3615-0.46491-1.0576-0.69002-1.547-0.22554-0.48892-0.66275-1.3837-0.97132-1.9882-0.30898-0.60453-0.75026-1.4379-0.98112-1.8523-0.23082-0.41442-0.66194-1.1582-0.95828-1.6528-0.29636-0.49503-0.76205-1.2461-1.0357-1.6691-0.27356-0.42338-0.71892-1.0902-0.98962-1.4818-0.27071-0.39204-0.69369-0.9872-0.93953-1.3231-0.24589-0.33585-0.7173-0.95872-1.047-1.3841-0.33016-0.42542-0.85204-1.0759-1.1594-1.4452-0.30777-0.36965-0.75269-0.89151-0.98925-1.1602-0.23653-0.26868-0.72382-0.80767-1.0829-1.1981-0.35905-0.38999-1.0572-1.1138-1.5514-1.608-0.49462-0.4942-1.2181-1.1928-1.608-1.5527-0.38999-0.35987-0.95623-0.87078-1.2588-1.1358-0.30206-0.26461-0.84266-0.723-1.2009-1.0185-0.35824-0.29555-0.99782-0.80686-1.4207-1.1362-0.42337-0.32933-1.1195-0.85079-1.547-1.1594-0.42786-0.30817-1.089-0.77223-1.4696-1.0311-0.38064-0.25851-1.0218-0.68026-1.4248-0.93632-0.40302-0.25605-1.0723-0.66804-1.4867-0.91552-0.41483-0.24751-1.1386-0.66356-1.608-0.92533-0.46979-0.26135-1.4859-0.79061-2.2586-1.1765-0.77223-0.38592-1.7656-0.86141-2.2069-1.0564-0.44088-0.1954-1.1736-0.50968-1.6284-0.69816-0.45431-0.18889-1.238-0.49869-1.7419-0.6884-0.50357-0.19011-1.3006-0.47589-1.7709-0.63588-0.47019-0.15958-1.2396-0.4079-1.7098-0.5512-0.47019-0.1433-1.2302-0.36394-1.6894-0.49055-0.4588-0.1262-1.2832-0.33626-1.8319-0.46693-0.54836-0.13027-1.4004-0.31998-1.893-0.42093-0.49258-0.10096-1.2709-0.24833-1.7301-0.32771-0.45879-0.0794-1.2192-0.19907-1.6894-0.26624-0.47019-0.0672-1.2669-0.16772-1.7708-0.22309-0.50358-0.0558-1.264-0.12986-1.6894-0.16406-0.42541-0.0346-1.0666-0.0826-1.4248-0.10706-0.35825-0.024-1.6955-0.0497-2.9718-0.057zm-5.8076 13.679c0.008 0.007-0.93551 1.1061-2.0961 2.4418l-2.1065 2.4286-8.1367 14.092-14.947 25.885-6.8094 11.793-1.0527 3.0552c-0.67944 1.9715-1.0634 3.0304-1.0812 2.9848-0.0155-0.0387-0.30451-1.8384-0.6424-3.9989-0.33789-2.1608-0.68595-4.2676-0.77348-4.6816-0.0879-0.41442-0.21534-1.045-0.28374-1.4016-0.0684-0.35621-0.18848-1.089-0.26664-1.6284-0.0778-0.53899-0.17831-1.3463-0.22309-1.7941-0.0444-0.4478-0.10096-1.0617-0.12539-1.3638-0.0244-0.30247-0.0546-1.3556-0.0672-2.3408-0.0143-1.1321-0.005-2.1205 0.0248-2.6868 0.026-0.49258 0.0745-1.207 0.10788-1.5877 0.0338-0.38064 0.0973-0.99453 0.14126-1.3638 0.0444-0.36964 0.13637-1.0381 0.20477-1.4859s0.22308-1.3088 0.34399-1.9133c0.12131-0.60454 0.31102-1.4655 0.42256-1.9133 0.11114-0.4478 0.30532-1.1716 0.43152-1.608 0.12579-0.43681 0.34929-1.1602 0.49625-1.608 0.14736-0.4478 0.3733-1.0983 0.50276-1.4452 0.12904-0.34725 0.34806-0.91435 0.48647-1.2607 0.13841-0.34644 0.40954-0.98764 0.60169-1.4248 0.19255-0.43721 0.62733-1.3446 0.96684-2.0164 0.33911-0.67171 0.80562-1.5511 1.0365-1.954 0.23082-0.40302 0.59395-1.0169 0.80723-1.3638 0.21331-0.34725 0.62408-0.98354 0.91274-1.4146 0.28862-0.43111 0.75356-1.0975 1.0332-1.481 0.27927-0.38389 0.66763-0.90132 0.86222-1.15 0.19459-0.24914 0.6257-0.77838 0.95791-1.1765 0.33259-0.39814 0.78973-0.92936 1.0165-1.1806 0.22675-0.25118 0.70386-0.7633 1.0605-1.1382 0.35621-0.37494 1.0165-1.0271 1.4672-1.4493 0.45065-0.42216 1.0393-0.95909 1.308-1.1928 0.26868-0.23408 0.73599-0.62815 1.0381-0.87569 0.30248-0.2471 0.81544-0.65094 1.1399-0.89722 0.32445-0.24588 0.79222-0.59394 1.0385-0.77303 0.2467-0.17912 0.80562-0.56424 1.2416-0.85534 0.4364-0.29066 1.1598-0.74946 1.6076-1.0193 0.44781-0.26991 1.089-0.64158 1.4248-0.82598 0.33585-0.18441 1.023-0.54184 1.5266-0.79427 0.50398-0.25239 1.1842-0.57888 1.512-0.72544 0.3277-0.14696 0.86265-0.37818 1.1887-0.51375 0.32609-0.13556 0.92819-0.37208 1.3377-0.52596 0.40994-0.15347 1.2213-0.436 1.8034-0.62814 0.58214-0.19175 2.7438-0.99819 4.8037-1.792 2.0599-0.79383 3.7513-1.4374 3.7591-1.4301zm10.735-0.0212c0.009 0 1.7354 0.66153 3.836 1.47 2.1002 0.80847 4.1983 1.5966 4.6625 1.7517 0.46449 0.1547 1.179 0.40668 1.5877 0.56016 0.40913 0.15348 1.0735 0.41686 1.4765 0.58541 0.40302 0.16813 0.98925 0.42134 1.3027 0.5626 0.31346 0.14085 1.0002 0.47181 1.5266 0.73518 0.52637 0.26339 1.2408 0.63669 1.5877 0.82964 0.34725 0.19296 0.92409 0.52637 1.2824 0.74133 0.35824 0.21454 0.90783 0.55487 1.2213 0.75598 0.31346 0.2007 0.83578 0.54835 1.1602 0.77267 0.32486 0.2239 0.93836 0.66722 1.3638 0.98478 0.42541 0.31754 1.0759 0.82517 1.4452 1.1276 0.36924 0.30247 0.90945 0.75883 1.2001 1.0141 0.29066 0.25524 0.80357 0.72218 1.1399 1.0376 0.33626 0.31549 0.93917 0.91068 1.3398 1.3226 0.40058 0.41157 0.95791 1.0051 1.238 1.319 0.28008 0.31387 0.74214 0.84963 1.0267 1.1903 0.28456 0.34074 0.71893 0.88133 0.9656 1.2009 0.24629 0.31956 0.62164 0.81945 0.83373 1.1106 0.21251 0.29107 0.59721 0.84062 0.85534 1.2213 0.25809 0.38063 0.65216 0.98515 0.87525 1.3434 0.22349 0.35824 0.5854 0.96274 0.80437 1.3434 0.21902 0.38064 0.58866 1.0519 0.82195 1.492 0.23286 0.44007 0.60331 1.1822 0.82312 1.6487 0.21983 0.46693 0.55609 1.2152 0.74705 1.663 0.19092 0.4478 0.48647 1.1847 0.65664 1.6373 0.17057 0.45228 0.43721 1.2046 0.59313 1.6715 0.15592 0.46694 0.3843 1.1993 0.50806 1.6276 0.12375 0.42826 0.31549 1.1411 0.42663 1.5848 0.11073 0.44373 0.26624 1.1085 0.34521 1.4781 0.079 0.36923 0.19866 0.97944 0.26665 1.3552 0.0676 0.37575 0.17749 1.0535 0.24385 1.5062 0.0668 0.45268 0.15754 1.1615 0.20232 1.5759 0.0452 0.41402 0.1144 1.1651 0.15429 1.6691 0.057 0.72137 0.0725 1.3703 0.072 3.0532-0.00042 1.6728-0.0159 2.3363-0.0725 3.0532-0.0399 0.50357-0.1091 1.2457-0.15347 1.6487-0.0448 0.40302-0.12743 1.0625-0.18402 1.4655-0.0566 0.40303-0.17423 1.1264-0.26135 1.608-0.0871 0.48118-0.24181 1.2506-0.34439 1.7098-0.10219 0.4588-0.25973 1.1183-0.3497 1.4655-0.0904 0.34684-0.2467 0.91471-0.34766 1.262-0.10096 0.34684-0.33992 1.1036-0.53166 1.6813-0.29758 0.89721-0.3558 1.0397-0.39814 0.97702-0.0273-0.0403-7.1791-12.421-15.893-27.511l-15.843-27.438-2.1153-2.4324c-1.1634-1.3377-2.108-2.4324-2.0981-2.4324zm-5.3522 15.47c0.0114 0 0.23531 0.85695 0.49666 1.9048l0.47589 1.9048 6.9226 11.987 6.9226 11.987 0.45798 0.44943c0.252 0.24751 0.89802 0.87569 1.4354 1.3959 0.53737 0.52027 0.94935 0.93675 0.91596 0.92533-0.0334-0.0114-0.89318-0.25932-1.9101-0.55121l-1.8524-0.53449h-14.815c-12.239 0-14.812-0.009-14.795-0.0537 0.0114-0.0293 3.286-5.7127 7.2772-12.63 3.9911-6.9169 7.3159-12.687 7.3877-12.821 0.10218-0.1897 0.23489-0.6603 0.59394-2.1067 0.25443-1.0242 0.47183-1.8624 0.48363-1.8624zm-15.814 29.555c0.008 0-0.003 0.0504-0.0232 0.11195-0.0208 0.0615-0.95426 3.3084-2.0749 7.2157-1.1203 3.9068-2.0473 7.1359-2.0595 7.175l-0.0224 0.0712h44.248l4.2393 7.3438 4.2419 7.3489-0.27886 0.31469c-0.15307 0.1726-0.7641 0.80071-1.3577 1.3951-0.59314 0.59435-1.3259 1.3006-1.6284 1.5694-0.30247 0.26868-0.75107 0.66071-0.99737 0.87158-0.24629 0.21047-0.76572 0.63547-1.1541 0.94445-0.38837 0.30939-1.0018 0.77874-1.3638 1.0434-0.3615 0.26462-0.94122 0.67415-1.2884 0.91069-0.34685 0.23612-0.9514 0.62936-1.3434 0.87364-0.39162 0.24426-0.95059 0.58337-1.2416 0.75393-0.29107 0.17058-0.82231 0.46898-1.1806 0.66316-0.35824 0.19418-1.0267 0.53776-1.4859 0.76286-0.45879 0.22512-1.1732 0.56016-1.5877 0.74375-0.41442 0.18401-1.1012 0.47305-1.5266 0.64239-0.42541 0.16976-1.1122 0.4303-1.5266 0.5793-0.41401 0.149-1.135 0.38918-1.6023 0.5337-0.46734 0.14452-1.1179 0.33667-1.4456 0.42745-0.32731 0.0908-0.92533 0.24466-1.3283 0.34277-0.40302 0.0977-1.0992 0.2524-1.547 0.34399-0.4478 0.092-1.1895 0.22879-1.6487 0.30491-0.45879 0.0757-1.2099 0.18483-1.6691 0.24222-0.45879 0.0574-1.1276 0.13109-1.4859 0.16365-0.35824 0.033-0.98112 0.0831-1.3841 0.11195-0.45024 0.0322-1.4859 0.0517-2.6868 0.0509-1.4428-0.001-2.2044-0.0199-2.9107-0.072-0.52596-0.0387-1.3687-0.11642-1.8726-0.1726-0.50357-0.0562-1.2274-0.14778-1.608-0.20396-0.38064-0.0562-1.0462-0.1665-1.4789-0.24507-0.43274-0.0786-1.1158-0.21494-1.518-0.30328-0.40221-0.0883-1.0279-0.23489-1.3911-0.32608-0.36313-0.0908-0.98025-0.25647-1.3723-0.36842-0.39162-0.11154-1.2254-0.37412-1.8523-0.58377-0.62693-0.20925-1.5336-0.53574-2.0151-0.72544-0.48118-0.18971-1.15-0.4645-1.4859-0.61024-0.33585-0.14614-0.93104-0.41564-1.323-0.59883-0.39162-0.18319-0.97783-0.47223-1.3027-0.64158-0.32445-0.16935-0.91962-0.49136-1.3222-0.71526-0.40221-0.22349-0.98845-0.5626-1.3027-0.75312-0.31387-0.19011-0.93712-0.58703-1.3849-0.88133-0.44781-0.29433-1.08-0.72544-1.4045-0.95828-0.32446-0.23245-0.84677-0.62-1.1602-0.86061-0.31346-0.24058-0.80606-0.63058-1.0947-0.86668-0.28904-0.23611-0.7849-0.65705-1.1024-0.93507-0.31753-0.27805-0.86917-0.77919-1.2254-1.1134-0.35661-0.33463-0.95989-0.92819-1.3406-1.3194-0.38063-0.39122-0.81785-0.85167-0.97131-1.0234l-0.27886-0.31265 8.3776-14.503c4.6075-7.9771 8.4128-14.563 8.4552-14.636 0.0432-0.0729 0.0843-0.13231 0.0924-0.13231z"/>
 </g>

<path fill="url(#SVGID_1_)" d="m263.55 304.91c-1.28 0-2.62 0-2.99 0.02s-0.98 0.06-1.35 0.08c-0.37 0.03-1.06 0.09-1.54 0.13-0.49 0.05-1.31 0.14-1.84 0.2-0.52 0.07-1.4 0.2-1.95 0.28-0.55 0.09-1.33 0.23-1.75 0.31-0.41 0.08-1.05 0.21-1.42 0.29s-1.13 0.26-1.71 0.4c-0.57 0.14-1.53 0.4-2.12 0.57s-1.65 0.5-2.34 0.73c-0.7 0.23-1.73 0.6-2.29 0.82-0.57 0.21-1.33 0.51-1.69 0.67-0.37 0.15-0.98 0.42-1.38 0.59-0.39 0.17-1.37 0.64-2.17 1.04-0.81 0.4-1.85 0.94-2.32 1.2s-1.27 0.72-1.77 1.02-1.25 0.77-1.67 1.04c-0.41 0.27-1.08 0.71-1.47 0.98s-0.99 0.7-1.32 0.94c-0.34 0.25-0.96 0.72-1.39 1.05-0.42 0.33-1.11 0.88-1.52 1.23-0.42 0.34-1.04 0.88-1.39 1.19-0.34 0.31-1.05 0.96-1.57 1.45-0.52 0.5-1.34 1.32-1.82 1.82-0.48 0.51-1.07 1.14-1.31 1.41-0.24 0.26-0.67 0.77-0.97 1.12s-0.73 0.87-0.97 1.16c-0.23 0.29-0.64 0.81-0.89 1.14-0.26 0.34-0.66 0.88-0.9 1.2-0.24 0.33-0.63 0.88-0.88 1.24s-0.67 1-0.95 1.43c-0.27 0.42-0.74 1.17-1.03 1.67-0.3 0.49-0.73 1.24-0.97 1.67-0.24 0.42-0.7 1.28-1.03 1.91s-0.78 1.52-1.01 1.99c-0.24 0.47-0.56 1.15-0.72 1.51s-0.45 1.02-0.63 1.47c-0.18 0.44-0.46 1.14-0.61 1.54s-0.44 1.22-0.63 1.81c-0.2 0.6-0.49 1.51-0.63 2.02-0.15 0.51-0.39 1.41-0.54 1.99-0.14 0.59-0.38 1.65-0.52 2.37-0.14 0.71-0.33 1.71-0.41 2.21-0.08 0.51-0.19 1.35-0.26 1.88-0.07 0.52-0.15 1.25-0.18 1.62-0.04 0.37-0.09 1.04-0.13 1.49-0.03 0.45-0.08 1.35-0.1 1.99-0.03 0.74-0.04 1.88-0.03 3.02 0.02 1.01 0.05 2.14 0.07 2.52s0.07 1.05 0.1 1.49c0.04 0.43 0.11 1.22 0.17 1.75 0.05 0.52 0.16 1.35 0.22 1.83 0.07 0.48 0.19 1.26 0.27 1.73s0.21 1.23 0.3 1.69 0.24 1.16 0.33 1.57c0.09 0.4 0.27 1.17 0.41 1.71 0.13 0.53 0.34 1.29 0.45 1.69 0.11 0.39 0.31 1.06 0.44 1.49 0.13 0.42 0.35 1.1 0.49 1.5s0.37 1.07 0.52 1.49c0.16 0.41 0.43 1.12 0.62 1.58 0.18 0.46 0.49 1.2 0.69 1.65s0.51 1.14 0.69 1.53 0.55 1.14 0.82 1.66 0.68 1.3 0.92 1.73 0.65 1.15 0.92 1.59c0.27 0.45 0.72 1.18 1.01 1.63 0.29 0.44 0.74 1.11 1 1.48 0.26 0.38 0.76 1.07 1.11 1.54s0.89 1.15 1.19 1.52c0.29 0.37 0.79 0.97 1.1 1.32 0.32 0.36 0.87 0.98 1.23 1.37 0.37 0.39 1.02 1.06 1.45 1.49 0.44 0.42 1.01 0.97 1.27 1.21 0.27 0.24 0.5 0.43 0.51 0.43 0.02 0 1.72-2.94 3.79-6.53 2.08-3.59 3.77-6.52 3.78-6.52 0 0.01-1 3.52-2.22 7.81-1.23 4.28-2.25 7.83-2.26 7.88-0.03 0.08 0.05 0.16 0.68 0.66 0.4 0.32 1.05 0.82 1.44 1.11 0.4 0.3 1.07 0.79 1.49 1.09 0.43 0.3 1.12 0.76 1.53 1.04 0.42 0.27 1.09 0.69 1.49 0.94s0.95 0.58 1.22 0.74 0.86 0.49 1.32 0.74c0.45 0.25 1.31 0.69 1.91 0.99s1.4 0.69 1.8 0.87c0.39 0.18 1.01 0.46 1.38 0.61 0.37 0.16 0.96 0.4 1.3 0.54 0.35 0.14 0.93 0.36 1.29 0.5 0.35 0.13 1.05 0.38 1.54 0.55 0.49 0.16 1.28 0.41 1.75 0.56 0.47 0.14 1.09 0.32 1.37 0.4s0.91 0.25 1.4 0.37 1.18 0.29 1.53 0.36c0.35 0.08 1 0.22 1.46 0.31s1.17 0.22 1.57 0.29c0.4 0.06 1.12 0.17 1.59 0.24s1.18 0.16 1.59 0.21c0.4 0.04 1.17 0.11 1.71 0.16 0.53 0.04 1.3 0.1 1.71 0.12 0.4 0.03 1.46 0.06 2.36 0.07 0.99 0.01 2.09 0.01 2.83-0.02 0.66-0.03 1.47-0.07 1.81-0.09 0.33-0.02 1.02-0.08 1.53-0.12 0.5-0.05 1.28-0.13 1.73-0.19 0.44-0.05 1.06-0.13 1.38-0.18 0.31-0.05 0.9-0.14 1.3-0.2 0.4-0.07 1.06-0.19 1.47-0.27 0.4-0.08 1.09-0.23 1.54-0.33s1.14-0.26 1.55-0.36c0.4-0.1 1.09-0.28 1.53-0.4 0.43-0.13 1.17-0.35 1.64-0.49 0.47-0.15 1.16-0.37 1.55-0.51 0.38-0.13 0.9-0.31 1.14-0.4 0.25-0.09 0.74-0.28 1.1-0.42 0.36-0.13 0.87-0.34 1.14-0.45s0.91-0.39 1.43-0.62c0.51-0.22 1.49-0.69 2.17-1.03 0.69-0.33 1.49-0.74 1.8-0.91 0.3-0.16 0.87-0.48 1.26-0.7 0.39-0.23 0.94-0.55 1.22-0.72s0.84-0.51 1.24-0.77c0.4-0.25 1.11-0.72 1.57-1.04 0.46-0.31 1.17-0.82 1.59-1.12 0.41-0.31 1.05-0.79 1.42-1.08s0.95-0.76 1.28-1.04c0.34-0.28 0.75-0.62 0.92-0.77s0.58-0.52 0.91-0.82c0.34-0.3 0.99-0.91 1.45-1.35s1.23-1.22 1.71-1.73c0.49-0.51 1.11-1.18 1.39-1.5 0.28-0.31 0.86-0.99 1.3-1.51s1.05-1.28 1.36-1.68c0.32-0.41 0.86-1.15 1.22-1.65 0.35-0.49 0.89-1.27 1.2-1.73s0.74-1.13 0.95-1.48l0.4-0.64-4.4-7.62c-2.42-4.19-4.39-7.62-4.39-7.63 0.01 0 2.47 2.54 5.47 5.65 3 3.1 5.46 5.65 5.48 5.65 0.01 0 0.2-0.37 0.42-0.81 0.21-0.45 0.58-1.25 0.81-1.77s0.64-1.48 0.89-2.12c0.26-0.65 0.62-1.6 0.8-2.11s0.47-1.36 0.63-1.89c0.17-0.53 0.4-1.29 0.51-1.69 0.12-0.4 0.31-1.12 0.43-1.59 0.12-0.48 0.32-1.34 0.45-1.91 0.12-0.56 0.29-1.43 0.38-1.92 0.09-0.5 0.22-1.27 0.29-1.71 0.07-0.45 0.16-1.1 0.2-1.45 0.05-0.35 0.12-1 0.17-1.44 0.04-0.45 0.1-1.19 0.14-1.63 0.03-0.45 0.08-1.3 0.11-1.9 0.03-0.67 0.03-1.82 0.02-3.05-0.01-1.08-0.04-2.27-0.07-2.63-0.02-0.35-0.07-0.99-0.1-1.42-0.04-0.42-0.11-1.2-0.17-1.71-0.05-0.52-0.15-1.32-0.22-1.79s-0.18-1.18-0.25-1.57c-0.06-0.39-0.18-1.04-0.26-1.44-0.08-0.41-0.22-1.06-0.31-1.47-0.09-0.4-0.26-1.13-0.38-1.62-0.13-0.5-0.36-1.37-0.53-1.96-0.17-0.58-0.49-1.6-0.71-2.26s-0.55-1.62-0.74-2.12c-0.19-0.51-0.44-1.13-0.54-1.38-0.11-0.26-0.32-0.77-0.47-1.13-0.16-0.36-0.47-1.06-0.69-1.55-0.23-0.48-0.67-1.38-0.98-1.98-0.3-0.61-0.75-1.44-0.98-1.86-0.23-0.41-0.66-1.15-0.95-1.65-0.3-0.49-0.77-1.24-1.04-1.67-0.27-0.42-0.72-1.09-0.99-1.48s-0.69-0.99-0.94-1.32c-0.25-0.34-0.72-0.96-1.05-1.39-0.33-0.42-0.85-1.07-1.15-1.44-0.31-0.37-0.76-0.89-1-1.16-0.23-0.27-0.72-0.81-1.08-1.2s-1.06-1.11-1.55-1.61c-0.49-0.49-1.22-1.19-1.61-1.55s-0.95-0.87-1.26-1.14c-0.3-0.26-0.84-0.72-1.2-1.01-0.35-0.3-1-0.81-1.42-1.14s-1.12-0.85-1.55-1.16c-0.42-0.31-1.08-0.77-1.46-1.03s-1.03-0.68-1.43-0.94c-0.4-0.25-1.07-0.67-1.49-0.91-0.41-0.25-1.13-0.67-1.6-0.93s-1.49-0.79-2.26-1.18c-0.78-0.38-1.77-0.86-2.21-1.05-0.44-0.2-1.17-0.51-1.63-0.7-0.45-0.19-1.24-0.5-1.74-0.69s-1.3-0.47-1.77-0.63-1.24-0.41-1.71-0.55c-0.47-0.15-1.23-0.37-1.69-0.49-0.46-0.13-1.28-0.34-1.83-0.47s-1.4-0.32-1.89-0.42c-0.5-0.1-1.28-0.25-1.73-0.33-0.46-0.08-1.22-0.2-1.69-0.27-0.47-0.06-1.27-0.16-1.78-0.22-0.5-0.06-1.26-0.13-1.68-0.16-0.43-0.04-1.07-0.09-1.43-0.11-0.36-0.03-1.69-0.05-2.97-0.06zm144.2 13.18c-4.02 0.03-7.23 3.26-7.23 7.29v37.24c0 16.4 13.13 29.56 29.29 29.61 0.03 0 0.06-0.01 0.09-0.01 3.95-0.17 7.1-3.32 7.16-7.27-0.06-3.96-3.21-7.11-7.16-7.17-0.04 0-0.08-0.01-0.12-0.01h0.12c-8.22 0-14.93-6.7-14.93-15.15v-14.34h7.64c4.03 0 7.25-3.21 7.28-7.23-0.03-4.02-3.25-7.23-7.28-7.23h-7.64v-8.44c0-4.03-3.2-7.26-7.22-7.29zm290.79 0c-4.02 0.03-7.23 3.26-7.23 7.29v37.24c0 16.4 13.14 29.56 29.3 29.61 0.03 0 0.05-0.01 0.08-0.01 3.96-0.17 7.11-3.32 7.17-7.27-0.06-3.96-3.21-7.11-7.17-7.17-0.04 0-0.07-0.01-0.11-0.01h0.11c-8.21 0-14.92-6.7-14.92-15.15v-14.34h7.64c4.03 0 7.25-3.21 7.28-7.23-0.03-4.02-3.26-7.23-7.28-7.23h-7.64v-8.44c0-4.03-3.21-7.26-7.23-7.29zm-430.06 0.48c0.01 0 1.73 0.66 3.83 1.47s4.2 1.6 4.66 1.75c0.47 0.16 1.18 0.41 1.59 0.56 0.41 0.16 1.08 0.42 1.48 0.59s0.99 0.42 1.3 0.56c0.32 0.14 1 0.47 1.53 0.73 0.53 0.27 1.24 0.64 1.59 0.83 0.34 0.2 0.92 0.53 1.28 0.75 0.36 0.21 0.91 0.55 1.22 0.75s0.83 0.55 1.16 0.77c0.32 0.23 0.94 0.67 1.36 0.99 0.43 0.32 1.08 0.82 1.45 1.13 0.37 0.3 0.91 0.76 1.2 1.01 0.29 0.26 0.8 0.72 1.14 1.04s0.94 0.91 1.34 1.32 0.96 1.01 1.24 1.32 0.74 0.85 1.02 1.19c0.29 0.34 0.72 0.88 0.97 1.2s0.62 0.82 0.83 1.11 0.6 0.84 0.86 1.22 0.65 0.99 0.87 1.35c0.23 0.36 0.59 0.96 0.81 1.34s0.59 1.05 0.82 1.49 0.6 1.18 0.82 1.65 0.56 1.22 0.75 1.66c0.19 0.45 0.49 1.19 0.66 1.64s0.43 1.21 0.59 1.67c0.16 0.47 0.38 1.2 0.51 1.63 0.12 0.43 0.31 1.14 0.43 1.59 0.11 0.44 0.26 1.1 0.34 1.47s0.2 0.98 0.27 1.36c0.06 0.37 0.17 1.05 0.24 1.5 0.07 0.46 0.16 1.17 0.2 1.58 0.05 0.42 0.12 1.17 0.16 1.67 0.05 0.72 0.07 1.37 0.07 3.05s-0.02 2.34-0.07 3.06c-0.04 0.5-0.11 1.24-0.16 1.64-0.04 0.41-0.13 1.07-0.18 1.47-0.06 0.4-0.18 1.13-0.26 1.61-0.09 0.48-0.24 1.25-0.35 1.71-0.1 0.46-0.26 1.12-0.35 1.46-0.09 0.35-0.24 0.92-0.34 1.27-0.11 0.34-0.34 1.1-0.54 1.68-0.29 0.9-0.35 1.04-0.39 0.97-0.03-0.04-7.18-12.42-15.9-27.51l-15.84-27.43-2.12-2.44c-1.16-1.33-2.1-2.43-2.09-2.43zm-10.74 0.02c0.01 0.01-0.94 1.11-2.1 2.44l-2.1 2.43-8.14 14.09-14.94 25.89-6.81 11.79-1.06 3.06c-0.68 1.97-1.06 3.03-1.08 2.98-0.01-0.04-0.3-1.84-0.64-4s-0.69-4.26-0.77-4.68c-0.09-0.41-0.22-1.04-0.29-1.4s-0.19-1.09-0.27-1.63c-0.07-0.54-0.17-1.34-0.22-1.79-0.04-0.45-0.1-1.07-0.12-1.37-0.03-0.3-0.06-1.35-0.07-2.34-0.01-1.13-0.01-2.12 0.02-2.68 0.03-0.5 0.08-1.21 0.11-1.59 0.04-0.38 0.1-1 0.14-1.37 0.05-0.37 0.14-1.03 0.21-1.48s0.22-1.31 0.34-1.91c0.12-0.61 0.31-1.47 0.43-1.92 0.11-0.45 0.3-1.17 0.43-1.61 0.12-0.43 0.35-1.16 0.49-1.6 0.15-0.45 0.38-1.1 0.51-1.45s0.34-0.91 0.48-1.26 0.41-0.99 0.6-1.42c0.2-0.44 0.63-1.35 0.97-2.02s0.81-1.55 1.04-1.96c0.23-0.4 0.59-1.01 0.81-1.36 0.21-0.35 0.62-0.98 0.91-1.41 0.29-0.44 0.75-1.1 1.03-1.48 0.28-0.39 0.67-0.91 0.86-1.16 0.2-0.24 0.63-0.77 0.96-1.17s0.79-0.93 1.02-1.18c0.22-0.25 0.7-0.76 1.06-1.14 0.35-0.37 1.01-1.03 1.46-1.45s1.04-0.96 1.31-1.19c0.27-0.24 0.74-0.63 1.04-0.88s0.82-0.65 1.14-0.9c0.32-0.24 0.79-0.59 1.04-0.77s0.81-0.56 1.24-0.85c0.44-0.29 1.16-0.75 1.61-1.02s1.09-0.64 1.42-0.83c0.34-0.18 1.03-0.54 1.53-0.79 0.5-0.26 1.18-0.58 1.51-0.73s0.86-0.38 1.19-0.51c0.33-0.14 0.93-0.37 1.34-0.53 0.41-0.15 1.22-0.43 1.8-0.63 0.58-0.19 2.74-0.99 4.8-1.79 2.06-0.79 3.75-1.43 3.76-1.43zm214.55 14.7c-16.08 0-29.52 13.18-29.52 29.34 0 16.43 13.44 29.6 29.52 29.6 16.16 0 29.34-13.17 29.34-29.6 0-16.17-13.18-29.34-29.34-29.34zm67.36 0c-16.17 0-29.34 13.17-29.34 29.34v21.71c0 4.03 3.21 7.24 7.22 7.28 4.02-0.04 7.22-3.25 7.22-7.28v-21.71c0-8.2 6.7-14.9 14.9-14.9s15.02 6.7 15.02 14.9v21.71c0 4.03 3.2 7.24 7.21 7.28 0.26-0.01 0.5-0.02 0.75-0.05 3.66-0.39 6.47-3.46 6.47-7.23v-21.71c0-0.52 0.03-1.02 0.08-1.52 0.72-7 6.31-12.59 13.31-13.31 0.5-0.05 1-0.07 1.51-0.07 8.2 0 15.02 6.7 15.02 14.9v21.71c0 4.03 3.21 7.24 7.22 7.28 4.02-0.04 7.22-3.25 7.22-7.28v-21.71c0-16.17-13.4-29.34-29.46-29.34-0.55 0-1.1 0.01-1.64 0.04-7.63 0.43-14.49 3.79-19.48 8.97-0.36 0.37-0.7 0.75-1.04 1.14-5.43-6.21-13.41-10.15-22.19-10.15zm111.93 0c-16.18 0-29.35 13.17-29.35 29.35 0 16.42 13.17 29.59 29.35 29.59 9.95 0 18.87-5.05 24.23-12.79l3.67 8.01c0.58 1.27 1.5 2.31 2.62 3.04 0.03 0.02 0.05 0.03 0.07 0.05 0.28 0.17 0.56 0.33 0.85 0.46h0.01c0.92 0.43 1.94 0.66 2.99 0.66 0.33 0 0.65-0.03 0.97-0.07 0.91-0.12 1.75-0.4 2.5-0.82 0.05-0.03 0.09-0.05 0.14-0.08 1.49-0.86 2.62-2.25 3.19-3.85 0.01-0.04 0.02-0.08 0.04-0.11 0.08-0.24 0.14-0.49 0.2-0.74 0.01-0.03 0.02-0.07 0.02-0.11 0.06-0.27 0.1-0.54 0.12-0.81v-0.01c0.03-0.27 0.03-0.55 0.02-0.83v-0.12c-0.01-0.26-0.04-0.52-0.09-0.78 0-0.04-0.01-0.08-0.01-0.12-0.05-0.26-0.11-0.53-0.19-0.8-0.01-0.03-0.03-0.07-0.04-0.1-0.09-0.29-0.2-0.57-0.32-0.85l-14.29-31.18c-0.03-0.07-0.06-0.13-0.09-0.19-0.01-0.01-0.01-0.02-0.02-0.03-0.08-0.16-0.16-0.31-0.23-0.47-0.15-0.29-0.3-0.58-0.45-0.87-0.05-0.08-0.1-0.17-0.15-0.25-0.33-0.58-0.67-1.15-1.04-1.71-0.04-0.06-0.08-0.13-0.12-0.19-0.34-0.5-0.68-0.99-1.04-1.47-0.08-0.1-0.16-0.2-0.24-0.31-0.34-0.44-0.7-0.87-1.06-1.28-0.1-0.11-0.19-0.22-0.29-0.33-0.37-0.41-0.74-0.81-1.13-1.2-0.11-0.1-0.22-0.21-0.33-0.32-0.4-0.39-0.82-0.77-1.24-1.14-0.09-0.08-0.18-0.15-0.26-0.23-0.45-0.37-0.9-0.73-1.37-1.08-0.09-0.07-0.18-0.14-0.28-0.21-0.49-0.36-0.99-0.71-1.51-1.04-0.05-0.03-0.1-0.07-0.16-0.1-0.56-0.36-1.14-0.7-1.73-1.02-0.39-0.21-0.78-0.41-1.18-0.61-0.05-0.02-0.09-0.04-0.14-0.06-0.36-0.18-0.73-0.34-1.09-0.5-0.09-0.04-0.18-0.07-0.26-0.11h-0.01c-0.33-0.14-0.67-0.27-1.01-0.4-0.13-0.05-0.25-0.1-0.38-0.14-0.14-0.05-0.28-0.11-0.42-0.16-0.07-0.02-0.14-0.03-0.2-0.05-2.93-0.98-6.04-1.52-9.27-1.52zm138.61 0c-16.07 0-29.51 13.18-29.51 29.34 0 16.43 13.44 29.6 29.51 29.6 16.17 0 29.35-13.17 29.35-29.6 0-16.17-13.18-29.34-29.35-29.34zm-451.44 0.52c-4.04 0-7.29 3.25-7.29 7.3v14.4c0 4.13 0.35 10.54 0.96 14.59 3.16 12.65 14.76 22.13 28.38 22.13 16.07 0 29.51-13.17 29.51-29.43v-21.69c0-4.05-3.25-7.3-7.2-7.3-4.04 0-7.29 3.25-7.29 7.3v21.69c0 8.26-6.77 14.94-15.02 14.94-8.17 0-14.94-6.68-14.94-14.94v-21.69c0-4.05-3.16-7.3-7.11-7.3zm404.75 0c-4.04 0-7.29 3.25-7.29 7.3v43.22c0 4.04 3.25 7.29 7.29 7.29 3.95 0 7.11-3.25 7.11-7.29v-43.22c0-4.05-3.16-7.3-7.11-7.3zm-480.38 0.23c0.02 0 0.24 0.86 0.5 1.91l0.48 1.9 6.92 11.99 6.92 11.98 0.46 0.45c0.25 0.25 0.9 0.88 1.44 1.4 0.53 0.52 0.95 0.94 0.91 0.92-0.03-0.01-0.89-0.26-1.91-0.55l-1.85-0.53h-14.82c-12.24 0-14.81-0.01-14.79-0.05 0.01-0.03 3.29-5.72 7.28-12.64 3.99-6.91 7.31-12.68 7.38-12.82 0.11-0.19 0.24-0.66 0.6-2.1 0.25-1.03 0.47-1.86 0.48-1.86zm209.17 13.66c8.17 0 14.84 6.67 14.84 14.93 0 8.43-6.67 15.11-14.84 15.11-8.26 0-15.11-6.68-15.11-15.11 0-8.26 6.85-14.93 15.11-14.93zm317.9 0c8.17 0 14.85 6.67 14.85 14.93 0 8.43-6.68 15.11-14.85 15.11-8.25 0-15.11-6.68-15.11-15.11 0-8.26 6.86-14.93 15.11-14.93zm-138.61 0.03c1.96 0 3.83 0.4 5.55 1.09 0.13 0.05 0.26 0.1 0.39 0.15 0.38 0.17 0.75 0.35 1.12 0.54 0.03 0.02 0.06 0.03 0.09 0.05 4.67 2.54 7.88 7.46 7.88 13.08 0 8.44-6.82 15.15-15.03 15.15-8.2 0-14.91-6.71-14.91-15.15 0-8.2 6.71-14.91 14.91-14.91zm-404.27 15.86v0.01c0.01 0 0 0.05-0.02 0.11s-0.96 3.3-2.08 7.21-2.05 7.14-2.06 7.18l-0.02 0.07h44.25l4.24 7.34 4.24 7.35-0.28 0.32c-0.15 0.17-0.76 0.8-1.36 1.39-0.59 0.6-1.32 1.3-1.62 1.57-0.31 0.27-0.76 0.66-1 0.87-0.25 0.21-0.77 0.64-1.16 0.95s-1 0.78-1.36 1.04-0.94 0.67-1.29 0.91-0.95 0.63-1.34 0.88c-0.39 0.24-0.95 0.58-1.24 0.75s-0.83 0.47-1.18 0.66c-0.36 0.2-1.03 0.54-1.49 0.76-0.46 0.23-1.17 0.57-1.59 0.75-0.41 0.18-1.1 0.47-1.52 0.64-0.43 0.17-1.12 0.43-1.53 0.58-0.42 0.15-1.14 0.39-1.6 0.53-0.47 0.15-1.12 0.34-1.45 0.43s-0.92 0.25-1.33 0.34c-0.4 0.1-1.1 0.26-1.54 0.35-0.45 0.09-1.19 0.23-1.65 0.3-0.46 0.08-1.21 0.19-1.67 0.24-0.46 0.06-1.13 0.14-1.49 0.17s-0.98 0.08-1.38 0.11c-0.45 0.03-1.49 0.05-2.69 0.05-1.44 0-2.2-0.02-2.91-0.07-0.53-0.04-1.37-0.12-1.87-0.17-0.51-0.06-1.23-0.15-1.61-0.21-0.38-0.05-1.05-0.16-1.48-0.24s-1.11-0.22-1.52-0.3c-0.4-0.09-1.02-0.24-1.39-0.33-0.36-0.09-0.98-0.26-1.37-0.37s-1.23-0.37-1.85-0.58c-0.63-0.21-1.54-0.54-2.02-0.73s-1.15-0.46-1.48-0.61c-0.34-0.15-0.93-0.41-1.33-0.6-0.39-0.18-0.97-0.47-1.3-0.64-0.32-0.17-0.92-0.49-1.32-0.72-0.4-0.22-0.99-0.56-1.3-0.75-0.32-0.19-0.94-0.59-1.39-0.88s-1.08-0.72-1.4-0.96c-0.33-0.23-0.85-0.62-1.16-0.86-0.32-0.24-0.81-0.63-1.1-0.87-0.29-0.23-0.78-0.65-1.1-0.93s-0.87-0.78-1.23-1.11c-0.35-0.34-0.96-0.93-1.34-1.32s-0.81-0.85-0.97-1.03l-0.28-0.31 8.38-14.5c4.61-7.98 8.41-14.56 8.45-14.64 0.05-0.07 0.09-0.13 0.1-0.13zm103.48 69.62c-0.26 0-0.47 0.09-0.65 0.26-0.16 0.16-0.23 0.37-0.23 0.62v21.23c0 0.25 0.07 0.47 0.23 0.65 0.18 0.15 0.39 0.23 0.65 0.23 0.25 0 0.46-0.08 0.62-0.23 0.17-0.18 0.26-0.4 0.26-0.65v-21.23c0-0.25-0.09-0.46-0.26-0.62-0.16-0.17-0.37-0.26-0.62-0.26zm18.84 0c-0.41 0-0.7 0.2-0.85 0.62l-8.92 21.11c-0.06 0.11-0.09 0.24-0.09 0.38 0 0.23 0.08 0.44 0.23 0.62 0.16 0.17 0.38 0.26 0.65 0.26 0.41 0 0.69-0.18 0.83-0.56l2.17-5.21h11.99l2.17 5.21c0.16 0.38 0.44 0.56 0.83 0.56 0.23 0 0.44-0.09 0.62-0.26 0.17-0.18 0.26-0.39 0.26-0.62 0-0.14-0.03-0.27-0.09-0.38l-8.95-21.11c-0.17-0.42-0.46-0.62-0.85-0.62zm126.98 0c-0.26 0-0.47 0.09-0.65 0.26-0.16 0.16-0.23 0.37-0.23 0.62v21.23c0 0.25 0.07 0.47 0.23 0.65 0.18 0.15 0.39 0.23 0.65 0.23h14.16c0.24 0 0.44-0.08 0.62-0.23 0.18-0.18 0.26-0.4 0.26-0.65 0-0.24-0.08-0.44-0.26-0.62s-0.38-0.26-0.62-0.26h-13.28v-8.84h9.75c0.25 0 0.46-0.09 0.62-0.26 0.17-0.18 0.26-0.39 0.26-0.65 0-0.25-0.09-0.46-0.26-0.62-0.16-0.17-0.37-0.26-0.62-0.26h-9.75v-8.84h13.28c0.24 0 0.44-0.08 0.62-0.26s0.26-0.38 0.26-0.62c0-0.25-0.08-0.46-0.26-0.62-0.18-0.17-0.38-0.26-0.62-0.26h-14.16zm-126.98 2.91l5.33 12.72h-10.63l5.3-12.72zm156.97 3.77c-0.92 0-1.78 0.2-2.59 0.59-0.8 0.39-1.48 0.94-2.03 1.65v-1.15c0-0.27-0.08-0.49-0.24-0.65-0.15-0.15-0.37-0.23-0.64-0.23-0.26 0-0.47 0.08-0.65 0.23-0.16 0.16-0.24 0.38-0.24 0.65v14.34c0 0.25 0.08 0.47 0.24 0.65 0.18 0.15 0.39 0.23 0.65 0.23 0.27 0 0.49-0.08 0.64-0.23 0.16-0.18 0.24-0.4 0.24-0.65v-9.01c0-1.37 0.43-2.49 1.3-3.36 0.86-0.86 1.97-1.29 3.32-1.29 1.26 0 2.29 0.48 3.09 1.44 0.81 0.96 1.21 2.2 1.21 3.71v8.51c0 0.25 0.08 0.47 0.24 0.65 0.17 0.15 0.39 0.23 0.64 0.23 0.28 0 0.49-0.08 0.65-0.23 0.16-0.18 0.24-0.4 0.24-0.65v-8.51-0.21c-0.04-1.49 0.36-2.69 1.2-3.59 0.85-0.9 1.96-1.35 3.33-1.35 1.26 0 2.29 0.48 3.09 1.44 0.81 0.96 1.21 2.2 1.21 3.71v8.51c0 0.25 0.08 0.47 0.23 0.65 0.18 0.15 0.4 0.23 0.65 0.23 0.28 0 0.49-0.08 0.65-0.23 0.16-0.18 0.24-0.4 0.24-0.65v-8.51c0-1.33-0.26-2.52-0.77-3.56-0.51-1.06-1.23-1.89-2.15-2.47-0.92-0.59-1.97-0.89-3.15-0.89s-2.24 0.29-3.18 0.86c-0.94 0.55-1.68 1.31-2.21 2.29-0.53-0.98-1.24-1.74-2.15-2.29-0.9-0.57-1.92-0.86-3.06-0.86zm-122.6 0.03c-1.51 0-2.9 0.35-4.15 1.06-1.24 0.69-2.22 1.65-2.95 2.89-0.72 1.23-1.1 2.61-1.12 4.12v0.06 14.16c0 0.27 0.08 0.49 0.24 0.65 0.18 0.15 0.39 0.23 0.65 0.23 0.27 0 0.49-0.08 0.64-0.23 0.16-0.16 0.24-0.38 0.24-0.65v-9.19c0.65 1.04 1.53 1.87 2.65 2.47 1.14 0.59 2.4 0.89 3.8 0.89 1.55 0 2.95-0.36 4.21-1.06 1.25-0.73 2.24-1.72 2.94-2.97 0.73-1.26 1.09-2.66 1.09-4.19 0-1.55-0.36-2.95-1.09-4.2-0.7-1.26-1.69-2.24-2.94-2.95-1.26-0.73-2.66-1.09-4.21-1.09zm24.62 0c-1.55 0-2.96 0.36-4.21 1.09-1.26 0.71-2.25 1.69-2.98 2.95-0.7 1.25-1.06 2.65-1.06 4.2 0 1.53 0.36 2.93 1.06 4.19 0.73 1.25 1.72 2.24 2.98 2.97 1.25 0.7 2.66 1.06 4.21 1.06 1.39 0 2.65-0.3 3.76-0.89 1.14-0.6 2.04-1.43 2.68-2.47v2.3c0 0.25 0.08 0.47 0.24 0.65 0.18 0.15 0.39 0.23 0.65 0.23 0.27 0 0.49-0.08 0.64-0.23 0.16-0.18 0.24-0.4 0.24-0.65v-7.16c0-1.55-0.36-2.95-1.09-4.2-0.71-1.26-1.69-2.24-2.94-2.95-1.26-0.73-2.65-1.09-4.18-1.09zm24.08 0c-1.04 0-2.01 0.26-2.89 0.77s-1.61 1.21-2.18 2.12v-1.83c0-0.27-0.08-0.49-0.23-0.65-0.16-0.15-0.38-0.23-0.65-0.23-0.26 0-0.47 0.08-0.65 0.23-0.16 0.16-0.23 0.38-0.23 0.65v14.34c0 0.25 0.07 0.47 0.23 0.65 0.18 0.15 0.39 0.23 0.65 0.23 0.27 0 0.49-0.08 0.65-0.23 0.15-0.18 0.23-0.4 0.23-0.65v-8.95c0-0.9 0.22-1.72 0.65-2.44 0.43-0.73 1.03-1.3 1.8-1.71 0.76-0.42 1.64-0.62 2.62-0.62 0.19 0 0.43 0.02 0.7 0.06 0.3 0.04 0.53 0.06 0.71 0.06 0.22 0 0.38-0.04 0.5-0.12 0.14-0.1 0.24-0.26 0.29-0.47 0.02-0.06 0.03-0.14 0.03-0.24 0-0.65-0.74-0.97-2.23-0.97zm16.86 0c-1.55 0-2.96 0.36-4.21 1.09-1.26 0.71-2.25 1.69-2.98 2.95-0.7 1.25-1.06 2.65-1.06 4.2 0 1.53 0.36 2.93 1.06 4.19 0.73 1.25 1.72 2.24 2.98 2.97 1.25 0.7 2.66 1.06 4.21 1.06 1.39 0 2.65-0.3 3.76-0.89 1.14-0.6 2.04-1.43 2.68-2.47v2.3c0 0.25 0.08 0.47 0.24 0.65 0.17 0.15 0.39 0.23 0.65 0.23 0.27 0 0.49-0.08 0.65-0.23 0.15-0.18 0.23-0.4 0.23-0.65v-7.16c0-1.55-0.36-2.95-1.09-4.2-0.7-1.26-1.69-2.24-2.94-2.95-1.26-0.73-2.65-1.09-4.18-1.09zm91.53 0c-1.51 0-2.9 0.35-4.15 1.06-1.24 0.69-2.22 1.65-2.95 2.89-0.72 1.23-1.1 2.61-1.12 4.12v0.06 14.16c0 0.27 0.08 0.49 0.24 0.65 0.18 0.15 0.39 0.23 0.65 0.23 0.27 0 0.49-0.08 0.64-0.23 0.16-0.16 0.24-0.38 0.24-0.65v-9.19c0.65 1.04 1.53 1.87 2.65 2.47 1.14 0.59 2.4 0.89 3.8 0.89 1.55 0 2.95-0.36 4.21-1.06 1.25-0.73 2.24-1.72 2.94-2.97 0.73-1.26 1.09-2.66 1.09-4.19 0-1.55-0.36-2.95-1.09-4.2-0.7-1.26-1.69-2.24-2.94-2.95-1.26-0.73-2.66-1.09-4.21-1.09zm24.09 0c-1.04 0-2.01 0.26-2.89 0.77s-1.61 1.21-2.18 2.12v-1.83c0-0.27-0.08-0.49-0.23-0.65-0.16-0.15-0.37-0.23-0.65-0.23-0.25 0-0.47 0.08-0.65 0.23-0.15 0.16-0.23 0.38-0.23 0.65v14.34c0 0.25 0.07 0.47 0.23 0.65 0.18 0.15 0.4 0.23 0.65 0.23 0.28 0 0.49-0.08 0.65-0.23 0.15-0.18 0.23-0.4 0.23-0.65v-8.95c0-0.9 0.22-1.72 0.65-2.44 0.43-0.73 1.03-1.3 1.8-1.71 0.76-0.42 1.63-0.62 2.62-0.62 0.19 0 0.43 0.02 0.7 0.06 0.3 0.04 0.53 0.06 0.71 0.06 0.22 0 0.38-0.04 0.5-0.12 0.14-0.1 0.24-0.26 0.29-0.47 0.02-0.06 0.03-0.14 0.03-0.24 0-0.65-0.74-0.97-2.23-0.97zm37.54 0c-1.69 0-3.06 0.4-4.12 1.21-1.04 0.78-1.56 1.89-1.56 3.33 0 1.07 0.48 2 1.44 2.76 0.98 0.77 2.43 1.29 4.33 1.56 3 0.43 4.5 1.43 4.5 2.98 0 0.86-0.37 1.57-1.11 2.12-0.73 0.54-1.87 0.82-3.42 0.82-2.18 0-3.76-0.6-4.74-1.8-0.18-0.21-0.4-0.32-0.68-0.32-0.21 0-0.38 0.05-0.5 0.15-0.25 0.18-0.38 0.4-0.38 0.67 0 0.2 0.07 0.38 0.21 0.54 0.7 0.82 1.6 1.44 2.68 1.85 1.07 0.39 2.18 0.59 3.32 0.59s2.19-0.19 3.15-0.56 1.73-0.9 2.3-1.59c0.59-0.69 0.88-1.48 0.88-2.39 0-1.15-0.46-2.13-1.38-2.94-0.9-0.82-2.4-1.38-4.48-1.68-1.59-0.23-2.73-0.59-3.41-1.06-0.67-0.47-1-1.1-1-1.88 0-0.77 0.35-1.4 1.06-1.91 0.7-0.53 1.65-0.8 2.85-0.8 1.81 0 3.21 0.64 4.21 1.91 0.2 0.26 0.44 0.39 0.74 0.39 0.1 0 0.24-0.04 0.44-0.12 0.31-0.18 0.47-0.4 0.47-0.68 0-0.2-0.06-0.36-0.18-0.5-1.27-1.77-3.15-2.65-5.62-2.65zm22.21 0c-1.55 0-2.95 0.36-4.21 1.09-1.26 0.71-2.25 1.69-2.97 2.95-0.71 1.25-1.06 2.65-1.06 4.2 0 1.53 0.35 2.93 1.06 4.19 0.72 1.25 1.71 2.24 2.97 2.97 1.26 0.7 2.66 1.06 4.21 1.06 1.4 0 2.65-0.3 3.77-0.89 1.14-0.6 2.03-1.43 2.68-2.47v2.3c0 0.25 0.08 0.47 0.23 0.65 0.18 0.15 0.4 0.23 0.65 0.23 0.28 0 0.49-0.08 0.65-0.23 0.16-0.18 0.23-0.4 0.23-0.65v-7.16c0-1.55-0.36-2.95-1.08-4.2-0.71-1.26-1.69-2.24-2.95-2.95-1.25-0.73-2.65-1.09-4.18-1.09zm22.76 0c-1.69 0-3.07 0.4-4.13 1.21-1.04 0.78-1.56 1.89-1.56 3.33 0 1.07 0.49 2 1.45 2.76 0.98 0.77 2.42 1.29 4.33 1.56 3 0.43 4.5 1.43 4.5 2.98 0 0.86-0.37 1.57-1.12 2.12-0.73 0.54-1.86 0.82-3.41 0.82-2.18 0-3.76-0.6-4.74-1.8-0.18-0.21-0.41-0.32-0.68-0.32-0.22 0-0.38 0.05-0.5 0.15-0.26 0.18-0.38 0.4-0.38 0.67 0 0.2 0.06 0.38 0.2 0.54 0.71 0.82 1.6 1.44 2.68 1.85 1.08 0.39 2.19 0.59 3.33 0.59 1.13 0 2.18-0.19 3.15-0.56 0.96-0.37 1.72-0.9 2.29-1.59 0.59-0.69 0.89-1.48 0.89-2.39 0-1.15-0.46-2.13-1.39-2.94-0.9-0.82-2.39-1.38-4.47-1.68-1.59-0.23-2.73-0.59-3.42-1.06-0.66-0.47-1-1.1-1-1.88 0-0.77 0.35-1.4 1.06-1.91 0.71-0.53 1.66-0.8 2.86-0.8 1.8 0 3.21 0.64 4.21 1.91 0.19 0.26 0.44 0.39 0.73 0.39 0.1 0 0.25-0.04 0.45-0.12 0.31-0.18 0.47-0.4 0.47-0.68 0-0.2-0.06-0.36-0.18-0.5-1.28-1.77-3.15-2.65-5.62-2.65zm-66.33 0.03c-1.47 0-2.79 0.35-3.95 1.06-1.13 0.69-2.03 1.66-2.68 2.92-0.62 1.23-0.94 2.64-0.94 4.23 0 1.57 0.35 2.99 1.03 4.24 0.69 1.24 1.63 2.21 2.83 2.92 1.22 0.69 2.6 1.03 4.15 1.03 0.92 0 1.88-0.19 2.89-0.56 1.02-0.37 1.84-0.84 2.47-1.41 0.17-0.18 0.26-0.37 0.26-0.56 0-0.24-0.1-0.44-0.32-0.62-0.14-0.12-0.31-0.18-0.53-0.18s-0.42 0.08-0.62 0.24c-0.45 0.43-1.07 0.78-1.85 1.06-0.77 0.25-1.53 0.38-2.3 0.38-1.14 0-2.17-0.25-3.09-0.76s-1.66-1.22-2.21-2.13c-0.55-0.92-0.85-1.96-0.91-3.12h12.33c0.26 0 0.47-0.06 0.62-0.2 0.16-0.16 0.24-0.37 0.24-0.62 0-1.53-0.32-2.9-0.94-4.09-0.63-1.2-1.52-2.13-2.65-2.8-1.12-0.69-2.4-1.03-3.83-1.03zm-197.36 1.62c1.21 0 2.31 0.29 3.29 0.88 0.99 0.57 1.76 1.36 2.33 2.36s0.85 2.12 0.85 3.35c0 1.24-0.28 2.36-0.85 3.36s-1.34 1.79-2.33 2.36c-0.98 0.56-2.08 0.85-3.29 0.85-1.22 0-2.32-0.29-3.3-0.85-0.98-0.57-1.76-1.36-2.32-2.36-0.55-1-0.83-2.12-0.83-3.36 0-1.23 0.28-2.35 0.83-3.35 0.56-1 1.34-1.79 2.32-2.36 0.98-0.59 2.08-0.88 3.3-0.88zm24.62 0c1.21 0 2.31 0.29 3.29 0.88 0.99 0.57 1.75 1.36 2.3 2.36 0.57 1 0.85 2.12 0.85 3.35 0 1.24-0.28 2.36-0.85 3.36-0.55 1-1.31 1.79-2.3 2.36-0.98 0.56-2.08 0.85-3.29 0.85-1.22 0-2.32-0.29-3.3-0.85-0.98-0.57-1.76-1.36-2.33-2.36s-0.85-2.12-0.85-3.36c0-1.23 0.28-2.35 0.85-3.35s1.35-1.79 2.33-2.36c0.98-0.59 2.08-0.88 3.3-0.88zm40.94 0c1.21 0 2.31 0.29 3.29 0.88 0.98 0.57 1.75 1.36 2.3 2.36 0.57 1 0.85 2.12 0.85 3.35 0 1.24-0.28 2.36-0.85 3.36-0.55 1-1.32 1.79-2.3 2.36-0.98 0.56-2.08 0.85-3.29 0.85-1.22 0-2.32-0.29-3.3-0.85-0.98-0.57-1.76-1.36-2.33-2.36s-0.85-2.12-0.85-3.36c0-1.23 0.28-2.35 0.85-3.35s1.35-1.79 2.33-2.36c0.98-0.59 2.08-0.88 3.3-0.88zm91.53 0c1.21 0 2.31 0.29 3.29 0.88 0.99 0.57 1.76 1.36 2.33 2.36s0.85 2.12 0.85 3.35c0 1.24-0.28 2.36-0.85 3.36s-1.34 1.79-2.33 2.36c-0.98 0.56-2.08 0.85-3.29 0.85-1.22 0-2.32-0.29-3.3-0.85-0.98-0.57-1.76-1.36-2.33-2.36-0.54-1-0.82-2.12-0.82-3.36 0-1.23 0.28-2.35 0.82-3.35 0.57-1 1.35-1.79 2.33-2.36 0.98-0.59 2.08-0.88 3.3-0.88zm83.84 0c1.22 0 2.32 0.29 3.3 0.88 0.98 0.57 1.75 1.36 2.3 2.36 0.56 1 0.85 2.12 0.85 3.35 0 1.24-0.29 2.36-0.85 3.36-0.55 1-1.32 1.79-2.3 2.36-0.98 0.56-2.08 0.85-3.3 0.85s-2.31-0.29-3.3-0.85c-0.98-0.57-1.75-1.36-2.32-2.36s-0.85-2.12-0.85-3.36c0-1.23 0.28-2.35 0.85-3.35s1.34-1.79 2.32-2.36c0.99-0.59 2.08-0.88 3.3-0.88zm-43.57 0.03c1.59 0 2.9 0.51 3.94 1.53s1.63 2.37 1.77 4.03h-11.45c0.2-1.66 0.81-3.01 1.85-4.03 1.06-1.02 2.36-1.53 3.89-1.53z" filter="url(#noise)" />
</g>
</svg>